<?xml version="1.0" encoding="UTF-8" standalone="no"?>
<!DOCTYPE svg PUBLIC "-//W3C//DTD SVG 1.1//EN"
 "http://www.w3.org/Graphics/SVG/1.1/DTD/svg11.dtd">
<!-- Generated by graphviz version 2.40.1 (20161225.0304)
 -->
<!-- Title: snakemake_dag Pages: 1 -->
<svg width="341pt" height="836pt"
 viewBox="0.00 0.00 340.50 836.00" xmlns="http://www.w3.org/2000/svg" xmlns:xlink="http://www.w3.org/1999/xlink">
<g id="graph0" class="graph" transform="scale(1 1) rotate(0) translate(4 832)">
<title>snakemake_dag</title>
<polygon fill="#ffffff" stroke="transparent" points="-4,4 -4,-832 336.5,-832 336.5,4 -4,4"/>
<!-- 0 -->
<g id="node1" class="node">
<title>0</title>
<path fill="none" stroke="#68d856" stroke-width="2" d="M211.5,-36C211.5,-36 181.5,-36 181.5,-36 175.5,-36 169.5,-30 169.5,-24 169.5,-24 169.5,-12 169.5,-12 169.5,-6 175.5,0 181.5,0 181.5,0 211.5,0 211.5,0 217.5,0 223.5,-6 223.5,-12 223.5,-12 223.5,-24 223.5,-24 223.5,-30 217.5,-36 211.5,-36"/>
<text text-anchor="middle" x="196.5" y="-15.5" font-family="sans" font-size="10.00" fill="#000000">all</text>
</g>
<!-- 1 -->
<g id="node2" class="node">
<title>1</title>
<path fill="none" stroke="#56b1d8" stroke-width="2" d="M211.5,-108C211.5,-108 181.5,-108 181.5,-108 175.5,-108 169.5,-102 169.5,-96 169.5,-96 169.5,-84 169.5,-84 169.5,-78 175.5,-72 181.5,-72 181.5,-72 211.5,-72 211.5,-72 217.5,-72 223.5,-78 223.5,-84 223.5,-84 223.5,-96 223.5,-96 223.5,-102 217.5,-108 211.5,-108"/>
<text text-anchor="middle" x="196.5" y="-87.5" font-family="sans" font-size="10.00" fill="#000000">multiqc</text>
</g>
<!-- 1&#45;&gt;0 -->
<g id="edge1" class="edge">
<title>1&#45;&gt;0</title>
<path fill="none" stroke="#c0c0c0" stroke-width="2" d="M196.5,-71.8314C196.5,-64.131 196.5,-54.9743 196.5,-46.4166"/>
<polygon fill="#c0c0c0" stroke="#c0c0c0" stroke-width="2" points="200.0001,-46.4132 196.5,-36.4133 193.0001,-46.4133 200.0001,-46.4132"/>
</g>
<!-- 2 -->
<g id="node3" class="node">
<title>2</title>
<path fill="none" stroke="#d87556" stroke-width="2" d="M184.5,-180C184.5,-180 154.5,-180 154.5,-180 148.5,-180 142.5,-174 142.5,-168 142.5,-168 142.5,-156 142.5,-156 142.5,-150 148.5,-144 154.5,-144 154.5,-144 184.5,-144 184.5,-144 190.5,-144 196.5,-150 196.5,-156 196.5,-156 196.5,-168 196.5,-168 196.5,-174 190.5,-180 184.5,-180"/>
<text text-anchor="middle" x="169.5" y="-159.5" font-family="sans" font-size="10.00" fill="#000000">busco</text>
</g>
<!-- 2&#45;&gt;1 -->
<g id="edge4" class="edge">
<title>2&#45;&gt;1</title>
<path fill="none" stroke="#c0c0c0" stroke-width="2" d="M176.3132,-143.8314C179.2644,-135.9617 182.7858,-126.5712 186.055,-117.8533"/>
<polygon fill="#c0c0c0" stroke="#c0c0c0" stroke-width="2" points="189.3609,-119.0055 189.595,-108.4133 182.8066,-116.5476 189.3609,-119.0055"/>
</g>
<!-- 3 -->
<g id="node4" class="node">
<title>3</title>
<path fill="none" stroke="#9fd856" stroke-width="2" d="M112.5,-180C112.5,-180 82.5,-180 82.5,-180 76.5,-180 70.5,-174 70.5,-168 70.5,-168 70.5,-156 70.5,-156 70.5,-150 76.5,-144 82.5,-144 82.5,-144 112.5,-144 112.5,-144 118.5,-144 124.5,-150 124.5,-156 124.5,-156 124.5,-168 124.5,-168 124.5,-174 118.5,-180 112.5,-180"/>
<text text-anchor="middle" x="97.5" y="-159.5" font-family="sans" font-size="10.00" fill="#000000">quast</text>
</g>
<!-- 3&#45;&gt;1 -->
<g id="edge5" class="edge">
<title>3&#45;&gt;1</title>
<path fill="none" stroke="#c0c0c0" stroke-width="2" d="M122.4819,-143.8314C134.7928,-134.8779 149.8107,-123.9558 163.0937,-114.2955"/>
<polygon fill="#c0c0c0" stroke="#c0c0c0" stroke-width="2" points="165.4973,-116.8752 171.5261,-108.1628 161.3801,-111.214 165.4973,-116.8752"/>
</g>
<!-- 4 -->
<g id="node5" class="node">
<title>4</title>
<path fill="none" stroke="#5673d8" stroke-width="2" d="M246,-252C246,-252 203,-252 203,-252 197,-252 191,-246 191,-240 191,-240 191,-228 191,-228 191,-222 197,-216 203,-216 203,-216 246,-216 246,-216 252,-216 258,-222 258,-228 258,-228 258,-240 258,-240 258,-246 252,-252 246,-252"/>
<text text-anchor="middle" x="224.5" y="-231.5" font-family="sans" font-size="10.00" fill="#000000">sam_stats</text>
</g>
<!-- 4&#45;&gt;1 -->
<g id="edge3" class="edge">
<title>4&#45;&gt;1</title>
<path fill="none" stroke="#c0c0c0" stroke-width="2" d="M220.9538,-215.7623C216.1569,-191.0928 207.5561,-146.8598 201.9392,-117.9731"/>
<polygon fill="#c0c0c0" stroke="#c0c0c0" stroke-width="2" points="205.3619,-117.2377 200.0174,-108.0896 198.4905,-118.5738 205.3619,-117.2377"/>
</g>
<!-- 5 -->
<g id="node6" class="node">
<title>5</title>
<path fill="none" stroke="#56d0d8" stroke-width="2" d="M320.5,-324C320.5,-324 264.5,-324 264.5,-324 258.5,-324 252.5,-318 252.5,-312 252.5,-312 252.5,-300 252.5,-300 252.5,-294 258.5,-288 264.5,-288 264.5,-288 320.5,-288 320.5,-288 326.5,-288 332.5,-294 332.5,-300 332.5,-300 332.5,-312 332.5,-312 332.5,-318 326.5,-324 320.5,-324"/>
<text text-anchor="middle" x="292.5" y="-303.5" font-family="sans" font-size="10.00" fill="#000000">sam_flagstat</text>
</g>
<!-- 5&#45;&gt;1 -->
<g id="edge2" class="edge">
<title>5&#45;&gt;1</title>
<path fill="none" stroke="#c0c0c0" stroke-width="2" d="M288.8481,-287.9848C284.7918,-269.5045 277.4756,-240.1279 267.5,-216 252.633,-180.0413 229.7478,-141.4455 213.9999,-116.5822"/>
<polygon fill="#c0c0c0" stroke="#c0c0c0" stroke-width="2" points="216.8905,-114.606 208.5491,-108.0737 210.9963,-118.3821 216.8905,-114.606"/>
</g>
<!-- 6 -->
<g id="node7" class="node">
<title>6</title>
<path fill="none" stroke="#56d8c1" stroke-width="2" d="M156.5,-252C156.5,-252 62.5,-252 62.5,-252 56.5,-252 50.5,-246 50.5,-240 50.5,-240 50.5,-228 50.5,-228 50.5,-222 56.5,-216 62.5,-216 62.5,-216 156.5,-216 156.5,-216 162.5,-216 168.5,-222 168.5,-228 168.5,-228 168.5,-240 168.5,-240 168.5,-246 162.5,-252 156.5,-252"/>
<text text-anchor="middle" x="109.5" y="-231.5" font-family="sans" font-size="10.00" fill="#000000">assembly_correction</text>
</g>
<!-- 6&#45;&gt;2 -->
<g id="edge6" class="edge">
<title>6&#45;&gt;2</title>
<path fill="none" stroke="#c0c0c0" stroke-width="2" d="M124.6405,-215.8314C131.6217,-207.454 140.0391,-197.3531 147.6876,-188.1749"/>
<polygon fill="#c0c0c0" stroke="#c0c0c0" stroke-width="2" points="150.4425,-190.3362 154.1556,-180.4133 145.0649,-185.8548 150.4425,-190.3362"/>
</g>
<!-- 6&#45;&gt;3 -->
<g id="edge7" class="edge">
<title>6&#45;&gt;3</title>
<path fill="none" stroke="#c0c0c0" stroke-width="2" d="M106.4719,-215.8314C105.1885,-208.131 103.6624,-198.9743 102.2361,-190.4166"/>
<polygon fill="#c0c0c0" stroke="#c0c0c0" stroke-width="2" points="105.6653,-189.7018 100.5689,-180.4133 98.7606,-190.8526 105.6653,-189.7018"/>
</g>
<!-- 7 -->
<g id="node8" class="node">
<title>7</title>
<path fill="none" stroke="#56d863" stroke-width="2" d="M118.5,-540C118.5,-540 78.5,-540 78.5,-540 72.5,-540 66.5,-534 66.5,-528 66.5,-528 66.5,-516 66.5,-516 66.5,-510 72.5,-504 78.5,-504 78.5,-504 118.5,-504 118.5,-504 124.5,-504 130.5,-510 130.5,-516 130.5,-516 130.5,-528 130.5,-528 130.5,-534 124.5,-540 118.5,-540"/>
<text text-anchor="middle" x="98.5" y="-519.5" font-family="sans" font-size="10.00" fill="#000000">assembly</text>
</g>
<!-- 7&#45;&gt;3 -->
<g id="edge8" class="edge">
<title>7&#45;&gt;3</title>
<path fill="none" stroke="#c0c0c0" stroke-width="2" d="M81.2544,-503.6186C58.8312,-477.719 22.5,-428.0348 22.5,-378 22.5,-378 22.5,-378 22.5,-306 22.5,-265.1184 21.6919,-251.7624 41.5,-216 47.5327,-205.1083 56.4825,-195.0583 65.4662,-186.6563"/>
<polygon fill="#c0c0c0" stroke="#c0c0c0" stroke-width="2" points="67.804,-189.2612 72.9571,-180.004 63.1558,-184.0271 67.804,-189.2612"/>
</g>
<!-- 7&#45;&gt;6 -->
<g id="edge12" class="edge">
<title>7&#45;&gt;6</title>
<path fill="none" stroke="#c0c0c0" stroke-width="2" d="M98.772,-503.7841C99.4201,-464.3955 101.3235,-368.365 105.5,-288 105.9274,-279.7752 106.5308,-270.8555 107.1396,-262.6798"/>
<polygon fill="#c0c0c0" stroke="#c0c0c0" stroke-width="2" points="110.6467,-262.7219 107.9287,-252.4817 103.6676,-262.1818 110.6467,-262.7219"/>
</g>
<!-- 8 -->
<g id="node9" class="node">
<title>8</title>
<path fill="none" stroke="#56d8a2" stroke-width="2" d="M191,-396C191,-396 132,-396 132,-396 126,-396 120,-390 120,-384 120,-384 120,-372 120,-372 120,-366 126,-360 132,-360 132,-360 191,-360 191,-360 197,-360 203,-366 203,-372 203,-372 203,-384 203,-384 203,-390 197,-396 191,-396"/>
<text text-anchor="middle" x="161.5" y="-375.5" font-family="sans" font-size="10.00" fill="#000000">produce_bam</text>
</g>
<!-- 7&#45;&gt;8 -->
<g id="edge17" class="edge">
<title>7&#45;&gt;8</title>
<path fill="none" stroke="#c0c0c0" stroke-width="2" d="M99.7912,-503.949C101.6982,-485.1817 106.3433,-455.3411 117.5,-432 122.2426,-422.078 129.1679,-412.3911 136.1268,-404.0243"/>
<polygon fill="#c0c0c0" stroke="#c0c0c0" stroke-width="2" points="138.8041,-406.2795 142.7389,-396.4424 133.5284,-401.6787 138.8041,-406.2795"/>
</g>
<!-- 11 -->
<g id="node12" class="node">
<title>11</title>
<path fill="none" stroke="#5692d8" stroke-width="2" d="M168.5,-468C168.5,-468 138.5,-468 138.5,-468 132.5,-468 126.5,-462 126.5,-456 126.5,-456 126.5,-444 126.5,-444 126.5,-438 132.5,-432 138.5,-432 138.5,-432 168.5,-432 168.5,-432 174.5,-432 180.5,-438 180.5,-444 180.5,-444 180.5,-456 180.5,-456 180.5,-462 174.5,-468 168.5,-468"/>
<text text-anchor="middle" x="153.5" y="-447.5" font-family="sans" font-size="10.00" fill="#000000">faidx</text>
</g>
<!-- 7&#45;&gt;11 -->
<g id="edge21" class="edge">
<title>7&#45;&gt;11</title>
<path fill="none" stroke="#c0c0c0" stroke-width="2" d="M112.3788,-503.8314C118.7136,-495.5386 126.3384,-485.557 133.2926,-476.4533"/>
<polygon fill="#c0c0c0" stroke="#c0c0c0" stroke-width="2" points="136.1452,-478.4847 139.4343,-468.4133 130.5825,-474.2353 136.1452,-478.4847"/>
</g>
<!-- 12 -->
<g id="node13" class="node">
<title>12</title>
<path fill="none" stroke="#d85656" stroke-width="2" d="M256,-468C256,-468 211,-468 211,-468 205,-468 199,-462 199,-456 199,-456 199,-444 199,-444 199,-438 205,-432 211,-432 211,-432 256,-432 256,-432 262,-432 268,-438 268,-444 268,-444 268,-456 268,-456 268,-462 262,-468 256,-468"/>
<text text-anchor="middle" x="233.5" y="-447.5" font-family="sans" font-size="10.00" fill="#000000">bwa_index</text>
</g>
<!-- 7&#45;&gt;12 -->
<g id="edge22" class="edge">
<title>7&#45;&gt;12</title>
<path fill="none" stroke="#c0c0c0" stroke-width="2" d="M130.8359,-504.7542C148.7484,-495.2009 171.2446,-483.2029 190.6097,-472.8748"/>
<polygon fill="#c0c0c0" stroke="#c0c0c0" stroke-width="2" points="192.3676,-475.904 199.5441,-468.1098 189.0735,-469.7275 192.3676,-475.904"/>
</g>
<!-- 8&#45;&gt;4 -->
<g id="edge9" class="edge">
<title>8&#45;&gt;4</title>
<path fill="none" stroke="#c0c0c0" stroke-width="2" d="M180.2611,-359.5576C189.1826,-349.7765 199.2418,-337.0929 205.5,-324 214.8263,-304.4883 219.6024,-280.4348 222.0324,-262.1046"/>
<polygon fill="#c0c0c0" stroke="#c0c0c0" stroke-width="2" points="225.5228,-262.39 223.2088,-252.051 218.5703,-261.5765 225.5228,-262.39"/>
</g>
<!-- 8&#45;&gt;5 -->
<g id="edge10" class="edge">
<title>8&#45;&gt;5</title>
<path fill="none" stroke="#c0c0c0" stroke-width="2" d="M194.5568,-359.8314C211.4677,-350.5368 232.2385,-339.1208 250.2941,-329.1971"/>
<polygon fill="#c0c0c0" stroke="#c0c0c0" stroke-width="2" points="252.376,-332.0468 259.4537,-324.1628 249.0043,-325.9122 252.376,-332.0468"/>
</g>
<!-- 8&#45;&gt;6 -->
<g id="edge11" class="edge">
<title>8&#45;&gt;6</title>
<path fill="none" stroke="#c0c0c0" stroke-width="2" d="M142.0681,-359.854C132.9755,-350.1484 122.9659,-337.443 117.5,-324 109.5481,-304.4429 107.7461,-280.5742 107.8255,-262.3327"/>
<polygon fill="#c0c0c0" stroke="#c0c0c0" stroke-width="2" points="111.3249,-262.3962 108.0574,-252.3178 104.3268,-262.2341 111.3249,-262.3962"/>
</g>
<!-- 9 -->
<g id="node10" class="node">
<title>9</title>
<path fill="none" stroke="#56d882" stroke-width="2" d="M184.5,-324C184.5,-324 138.5,-324 138.5,-324 132.5,-324 126.5,-318 126.5,-312 126.5,-312 126.5,-300 126.5,-300 126.5,-294 132.5,-288 138.5,-288 138.5,-288 184.5,-288 184.5,-288 190.5,-288 196.5,-294 196.5,-300 196.5,-300 196.5,-312 196.5,-312 196.5,-318 190.5,-324 184.5,-324"/>
<text text-anchor="middle" x="161.5" y="-303.5" font-family="sans" font-size="10.00" fill="#000000">sam_index</text>
</g>
<!-- 8&#45;&gt;9 -->
<g id="edge18" class="edge">
<title>8&#45;&gt;9</title>
<path fill="none" stroke="#c0c0c0" stroke-width="2" d="M161.5,-359.8314C161.5,-352.131 161.5,-342.9743 161.5,-334.4166"/>
<polygon fill="#c0c0c0" stroke="#c0c0c0" stroke-width="2" points="165.0001,-334.4132 161.5,-324.4133 158.0001,-334.4133 165.0001,-334.4132"/>
</g>
<!-- 9&#45;&gt;6 -->
<g id="edge13" class="edge">
<title>9&#45;&gt;6</title>
<path fill="none" stroke="#c0c0c0" stroke-width="2" d="M148.3782,-287.8314C142.4501,-279.6232 135.3271,-269.7606 128.8067,-260.7323"/>
<polygon fill="#c0c0c0" stroke="#c0c0c0" stroke-width="2" points="131.4908,-258.4708 122.7985,-252.4133 125.816,-262.5693 131.4908,-258.4708"/>
</g>
<!-- 10 -->
<g id="node11" class="node">
<title>10</title>
<path fill="none" stroke="#d8b456" stroke-width="2" d="M125,-612C125,-612 72,-612 72,-612 66,-612 60,-606 60,-600 60,-600 60,-588 60,-588 60,-582 66,-576 72,-576 72,-576 125,-576 125,-576 131,-576 137,-582 137,-588 137,-588 137,-600 137,-600 137,-606 131,-612 125,-612"/>
<text text-anchor="middle" x="98.5" y="-591.5" font-family="sans" font-size="10.00" fill="#000000">merge_pairs</text>
</g>
<!-- 10&#45;&gt;7 -->
<g id="edge14" class="edge">
<title>10&#45;&gt;7</title>
<path fill="none" stroke="#c0c0c0" stroke-width="2" d="M98.5,-575.8314C98.5,-568.131 98.5,-558.9743 98.5,-550.4166"/>
<polygon fill="#c0c0c0" stroke="#c0c0c0" stroke-width="2" points="102.0001,-550.4132 98.5,-540.4133 95.0001,-550.4133 102.0001,-550.4132"/>
</g>
<!-- 11&#45;&gt;8 -->
<g id="edge16" class="edge">
<title>11&#45;&gt;8</title>
<path fill="none" stroke="#c0c0c0" stroke-width="2" d="M155.5187,-431.8314C156.3743,-424.131 157.3917,-414.9743 158.3426,-406.4166"/>
<polygon fill="#c0c0c0" stroke="#c0c0c0" stroke-width="2" points="161.8283,-406.7386 159.4541,-396.4133 154.8711,-405.9656 161.8283,-406.7386"/>
</g>
<!-- 12&#45;&gt;8 -->
<g id="edge15" class="edge">
<title>12&#45;&gt;8</title>
<path fill="none" stroke="#c0c0c0" stroke-width="2" d="M215.3314,-431.8314C206.7848,-423.2848 196.4443,-412.9443 187.1198,-403.6198"/>
<polygon fill="#c0c0c0" stroke="#c0c0c0" stroke-width="2" points="189.4592,-401.0095 179.9133,-396.4133 184.5095,-405.9592 189.4592,-401.0095"/>
</g>
<!-- 13 -->
<g id="node14" class="node">
<title>13</title>
<path fill="none" stroke="#d8d356" stroke-width="2" d="M174.5,-684C174.5,-684 100.5,-684 100.5,-684 94.5,-684 88.5,-678 88.5,-672 88.5,-672 88.5,-660 88.5,-660 88.5,-654 94.5,-648 100.5,-648 100.5,-648 174.5,-648 174.5,-648 180.5,-648 186.5,-654 186.5,-660 186.5,-660 186.5,-672 186.5,-672 186.5,-678 180.5,-684 174.5,-684"/>
<text text-anchor="middle" x="137.5" y="-663.5" font-family="sans" font-size="10.00" fill="#000000">reads_correction</text>
</g>
<!-- 13&#45;&gt;10 -->
<g id="edge20" class="edge">
<title>13&#45;&gt;10</title>
<path fill="none" stroke="#c0c0c0" stroke-width="2" d="M127.6587,-647.8314C123.3043,-639.7925 118.0902,-630.1666 113.2831,-621.2918"/>
<polygon fill="#c0c0c0" stroke="#c0c0c0" stroke-width="2" points="116.3143,-619.5392 108.4739,-612.4133 110.1592,-622.8732 116.3143,-619.5392"/>
</g>
<!-- 14 -->
<g id="node15" class="node">
<title>14</title>
<path fill="none" stroke="#d89556" stroke-width="2" d="M128,-756C128,-756 69,-756 69,-756 63,-756 57,-750 57,-744 57,-744 57,-732 57,-732 57,-726 63,-720 69,-720 69,-720 128,-720 128,-720 134,-720 140,-726 140,-732 140,-732 140,-744 140,-744 140,-750 134,-756 128,-756"/>
<text text-anchor="middle" x="98.5" y="-735.5" font-family="sans" font-size="10.00" fill="#000000">params_table</text>
</g>
<!-- 14&#45;&gt;10 -->
<g id="edge19" class="edge">
<title>14&#45;&gt;10</title>
<path fill="none" stroke="#c0c0c0" stroke-width="2" d="M90.4083,-719.9165C86.2439,-709.6179 81.6082,-696.3436 79.5,-684 76.8063,-668.2284 76.8063,-663.7716 79.5,-648 80.9988,-639.2245 83.7751,-629.9785 86.7513,-621.6659"/>
<polygon fill="#c0c0c0" stroke="#c0c0c0" stroke-width="2" points="90.1126,-622.6742 90.4083,-612.0835 83.5727,-620.1782 90.1126,-622.6742"/>
</g>
<!-- 14&#45;&gt;13 -->
<g id="edge23" class="edge">
<title>14&#45;&gt;13</title>
<path fill="none" stroke="#c0c0c0" stroke-width="2" d="M108.3413,-719.8314C112.6957,-711.7925 117.9098,-702.1666 122.7169,-693.2918"/>
<polygon fill="#c0c0c0" stroke="#c0c0c0" stroke-width="2" points="125.8408,-694.8732 127.5261,-684.4133 119.6857,-691.5392 125.8408,-694.8732"/>
</g>
<!-- 15 -->
<g id="node16" class="node">
<title>15</title>
<path fill="none" stroke="#88d856" stroke-width="2" d="M81,-828C81,-828 12,-828 12,-828 6,-828 0,-822 0,-816 0,-816 0,-804 0,-804 0,-798 6,-792 12,-792 12,-792 81,-792 81,-792 87,-792 93,-798 93,-804 93,-804 93,-816 93,-816 93,-822 87,-828 81,-828"/>
<text text-anchor="middle" x="46.5" y="-807.5" font-family="sans" font-size="10.00" fill="#000000">reads_statistics</text>
</g>
<!-- 15&#45;&gt;14 -->
<g id="edge24" class="edge">
<title>15&#45;&gt;14</title>
<path fill="none" stroke="#c0c0c0" stroke-width="2" d="M59.6218,-791.8314C65.5499,-783.6232 72.6729,-773.7606 79.1933,-764.7323"/>
<polygon fill="#c0c0c0" stroke="#c0c0c0" stroke-width="2" points="82.184,-766.5693 85.2015,-756.4133 76.5092,-762.4708 82.184,-766.5693"/>
</g>
<!-- 16 -->
<g id="node17" class="node">
<title>16</title>
<path fill="none" stroke="#bed856" stroke-width="2" d="M180,-828C180,-828 123,-828 123,-828 117,-828 111,-822 111,-816 111,-816 111,-804 111,-804 111,-798 117,-792 123,-792 123,-792 180,-792 180,-792 186,-792 192,-798 192,-804 192,-804 192,-816 192,-816 192,-822 186,-828 180,-828"/>
<text text-anchor="middle" x="151.5" y="-807.5" font-family="sans" font-size="10.00" fill="#000000">genome_size</text>
</g>
<!-- 16&#45;&gt;14 -->
<g id="edge25" class="edge">
<title>16&#45;&gt;14</title>
<path fill="none" stroke="#c0c0c0" stroke-width="2" d="M138.1259,-791.8314C132.0838,-783.6232 124.8237,-773.7606 118.1779,-764.7323"/>
<polygon fill="#c0c0c0" stroke="#c0c0c0" stroke-width="2" points="120.8011,-762.3918 112.0542,-756.4133 115.1637,-766.5415 120.8011,-762.3918"/>
</g>
</g>
</svg>
