<?xml version="1.0" encoding="UTF-8" standalone="no"?>
<!DOCTYPE svg PUBLIC "-//W3C//DTD SVG 1.1//EN"
 "http://www.w3.org/Graphics/SVG/1.1/DTD/svg11.dtd">
<!-- Generated by graphviz version 2.40.1 (20161225.0304)
 -->
<!-- Title: snakemake_dag Pages: 1 -->
<svg width="310pt" height="836pt"
 viewBox="0.00 0.00 309.78 836.00" xmlns="http://www.w3.org/2000/svg" xmlns:xlink="http://www.w3.org/1999/xlink">
<g id="graph0" class="graph" transform="scale(1 1) rotate(0) translate(4 832)">
<title>snakemake_dag</title>
<polygon fill="#ffffff" stroke="transparent" points="-4,4 -4,-832 305.7801,-832 305.7801,4 -4,4"/>
<!-- 0 -->
<g id="node1" class="node">
<title>0</title>
<path fill="none" stroke="#56d8c1" stroke-width="2" d="M191.2801,-36C191.2801,-36 161.2801,-36 161.2801,-36 155.2801,-36 149.2801,-30 149.2801,-24 149.2801,-24 149.2801,-12 149.2801,-12 149.2801,-6 155.2801,0 161.2801,0 161.2801,0 191.2801,0 191.2801,0 197.2801,0 203.2801,-6 203.2801,-12 203.2801,-12 203.2801,-24 203.2801,-24 203.2801,-30 197.2801,-36 191.2801,-36"/>
<text text-anchor="middle" x="176.2801" y="-15.5" font-family="sans" font-size="10.00" fill="#000000">all</text>
</g>
<!-- 1 -->
<g id="node2" class="node">
<title>1</title>
<path fill="none" stroke="#56b1d8" stroke-width="2" d="M191.2801,-108C191.2801,-108 161.2801,-108 161.2801,-108 155.2801,-108 149.2801,-102 149.2801,-96 149.2801,-96 149.2801,-84 149.2801,-84 149.2801,-78 155.2801,-72 161.2801,-72 161.2801,-72 191.2801,-72 191.2801,-72 197.2801,-72 203.2801,-78 203.2801,-84 203.2801,-84 203.2801,-96 203.2801,-96 203.2801,-102 197.2801,-108 191.2801,-108"/>
<text text-anchor="middle" x="176.2801" y="-87.5" font-family="sans" font-size="10.00" fill="#000000">multiqc</text>
</g>
<!-- 1&#45;&gt;0 -->
<g id="edge1" class="edge">
<title>1&#45;&gt;0</title>
<path fill="none" stroke="#c0c0c0" stroke-width="2" d="M176.2801,-71.8314C176.2801,-64.131 176.2801,-54.9743 176.2801,-46.4166"/>
<polygon fill="#c0c0c0" stroke="#c0c0c0" stroke-width="2" points="179.7802,-46.4132 176.2801,-36.4133 172.7802,-46.4133 179.7802,-46.4132"/>
</g>
<!-- 2 -->
<g id="node3" class="node">
<title>2</title>
<path fill="none" stroke="#56d882" stroke-width="2" d="M232.2801,-252C232.2801,-252 176.2801,-252 176.2801,-252 170.2801,-252 164.2801,-246 164.2801,-240 164.2801,-240 164.2801,-228 164.2801,-228 164.2801,-222 170.2801,-216 176.2801,-216 176.2801,-216 232.2801,-216 232.2801,-216 238.2801,-216 244.2801,-222 244.2801,-228 244.2801,-228 244.2801,-240 244.2801,-240 244.2801,-246 238.2801,-252 232.2801,-252"/>
<text text-anchor="middle" x="204.2801" y="-231.5" font-family="sans" font-size="10.00" fill="#000000">sam_flagstat</text>
</g>
<!-- 2&#45;&gt;1 -->
<g id="edge4" class="edge">
<title>2&#45;&gt;1</title>
<path fill="none" stroke="#c0c0c0" stroke-width="2" d="M200.7339,-215.7623C195.9371,-191.0928 187.3362,-146.8598 181.7194,-117.9731"/>
<polygon fill="#c0c0c0" stroke="#c0c0c0" stroke-width="2" points="185.142,-117.2377 179.7976,-108.0896 178.2707,-118.5738 185.142,-117.2377"/>
</g>
<!-- 3 -->
<g id="node4" class="node">
<title>3</title>
<path fill="none" stroke="#56d0d8" stroke-width="2" d="M92.2801,-180C92.2801,-180 62.2801,-180 62.2801,-180 56.2801,-180 50.2801,-174 50.2801,-168 50.2801,-168 50.2801,-156 50.2801,-156 50.2801,-150 56.2801,-144 62.2801,-144 62.2801,-144 92.2801,-144 92.2801,-144 98.2801,-144 104.2801,-150 104.2801,-156 104.2801,-156 104.2801,-168 104.2801,-168 104.2801,-174 98.2801,-180 92.2801,-180"/>
<text text-anchor="middle" x="77.2801" y="-159.5" font-family="sans" font-size="10.00" fill="#000000">quast</text>
</g>
<!-- 3&#45;&gt;1 -->
<g id="edge5" class="edge">
<title>3&#45;&gt;1</title>
<path fill="none" stroke="#c0c0c0" stroke-width="2" d="M102.262,-143.8314C114.573,-134.8779 129.5909,-123.9558 142.8739,-114.2955"/>
<polygon fill="#c0c0c0" stroke="#c0c0c0" stroke-width="2" points="145.2775,-116.8752 151.3063,-108.1628 141.1603,-111.214 145.2775,-116.8752"/>
</g>
<!-- 4 -->
<g id="node5" class="node">
<title>4</title>
<path fill="none" stroke="#56d863" stroke-width="2" d="M164.2801,-180C164.2801,-180 134.2801,-180 134.2801,-180 128.2801,-180 122.2801,-174 122.2801,-168 122.2801,-168 122.2801,-156 122.2801,-156 122.2801,-150 128.2801,-144 134.2801,-144 134.2801,-144 164.2801,-144 164.2801,-144 170.2801,-144 176.2801,-150 176.2801,-156 176.2801,-156 176.2801,-168 176.2801,-168 176.2801,-174 170.2801,-180 164.2801,-180"/>
<text text-anchor="middle" x="149.2801" y="-159.5" font-family="sans" font-size="10.00" fill="#000000">busco</text>
</g>
<!-- 4&#45;&gt;1 -->
<g id="edge2" class="edge">
<title>4&#45;&gt;1</title>
<path fill="none" stroke="#c0c0c0" stroke-width="2" d="M156.0934,-143.8314C159.0445,-135.9617 162.566,-126.5712 165.8352,-117.8533"/>
<polygon fill="#c0c0c0" stroke="#c0c0c0" stroke-width="2" points="169.141,-119.0055 169.3752,-108.4133 162.5867,-116.5476 169.141,-119.0055"/>
</g>
<!-- 5 -->
<g id="node6" class="node">
<title>5</title>
<path fill="none" stroke="#5692d8" stroke-width="2" d="M289.7801,-324C289.7801,-324 246.7801,-324 246.7801,-324 240.7801,-324 234.7801,-318 234.7801,-312 234.7801,-312 234.7801,-300 234.7801,-300 234.7801,-294 240.7801,-288 246.7801,-288 246.7801,-288 289.7801,-288 289.7801,-288 295.7801,-288 301.7801,-294 301.7801,-300 301.7801,-300 301.7801,-312 301.7801,-312 301.7801,-318 295.7801,-324 289.7801,-324"/>
<text text-anchor="middle" x="268.2801" y="-303.5" font-family="sans" font-size="10.00" fill="#000000">sam_stats</text>
</g>
<!-- 5&#45;&gt;1 -->
<g id="edge3" class="edge">
<title>5&#45;&gt;1</title>
<path fill="none" stroke="#c0c0c0" stroke-width="2" d="M267.2968,-287.8892C265.8251,-269.3328 262.189,-239.8966 253.2801,-216 239.4214,-178.8261 214.18,-140.5519 196.3822,-116.0921"/>
<polygon fill="#c0c0c0" stroke="#c0c0c0" stroke-width="2" points="199.1882,-114.0002 190.4282,-108.041 193.5601,-118.1624 199.1882,-114.0002"/>
</g>
<!-- 6 -->
<g id="node7" class="node">
<title>6</title>
<path fill="none" stroke="#68d856" stroke-width="2" d="M194.7801,-396C194.7801,-396 135.7801,-396 135.7801,-396 129.7801,-396 123.7801,-390 123.7801,-384 123.7801,-384 123.7801,-372 123.7801,-372 123.7801,-366 129.7801,-360 135.7801,-360 135.7801,-360 194.7801,-360 194.7801,-360 200.7801,-360 206.7801,-366 206.7801,-372 206.7801,-372 206.7801,-384 206.7801,-384 206.7801,-390 200.7801,-396 194.7801,-396"/>
<text text-anchor="middle" x="165.2801" y="-375.5" font-family="sans" font-size="10.00" fill="#000000">produce_bam</text>
</g>
<!-- 6&#45;&gt;2 -->
<g id="edge6" class="edge">
<title>6&#45;&gt;2</title>
<path fill="none" stroke="#c0c0c0" stroke-width="2" d="M170.2195,-359.7623C176.9008,-335.0928 188.8806,-290.8598 196.7041,-261.9731"/>
<polygon fill="#c0c0c0" stroke="#c0c0c0" stroke-width="2" points="200.1449,-262.6569 199.3809,-252.0896 193.3884,-260.8269 200.1449,-262.6569"/>
</g>
<!-- 6&#45;&gt;5 -->
<g id="edge10" class="edge">
<title>6&#45;&gt;5</title>
<path fill="none" stroke="#c0c0c0" stroke-width="2" d="M191.2714,-359.8314C204.2018,-350.7927 220.0023,-339.7476 233.9185,-330.0198"/>
<polygon fill="#c0c0c0" stroke="#c0c0c0" stroke-width="2" points="236.1064,-332.7608 242.2972,-324.1628 232.0959,-327.0235 236.1064,-332.7608"/>
</g>
<!-- 7 -->
<g id="node8" class="node">
<title>7</title>
<path fill="none" stroke="#d8b456" stroke-width="2" d="M134.2801,-252C134.2801,-252 40.2801,-252 40.2801,-252 34.2801,-252 28.2801,-246 28.2801,-240 28.2801,-240 28.2801,-228 28.2801,-228 28.2801,-222 34.2801,-216 40.2801,-216 40.2801,-216 134.2801,-216 134.2801,-216 140.2801,-216 146.2801,-222 146.2801,-228 146.2801,-228 146.2801,-240 146.2801,-240 146.2801,-246 140.2801,-252 134.2801,-252"/>
<text text-anchor="middle" x="87.2801" y="-231.5" font-family="sans" font-size="10.00" fill="#000000">assembly_correction</text>
</g>
<!-- 6&#45;&gt;7 -->
<g id="edge14" class="edge">
<title>6&#45;&gt;7</title>
<path fill="none" stroke="#c0c0c0" stroke-width="2" d="M164.6899,-359.9466C163.3611,-340.9105 159.1877,-310.6045 146.2801,-288 140.0402,-277.0722 130.8244,-267.1142 121.5216,-258.8088"/>
<polygon fill="#c0c0c0" stroke="#c0c0c0" stroke-width="2" points="123.6457,-256.0213 113.7502,-252.2359 119.1253,-261.366 123.6457,-256.0213"/>
</g>
<!-- 11 -->
<g id="node12" class="node">
<title>11</title>
<path fill="none" stroke="#d89556" stroke-width="2" d="M125.2801,-324C125.2801,-324 79.2801,-324 79.2801,-324 73.2801,-324 67.2801,-318 67.2801,-312 67.2801,-312 67.2801,-300 67.2801,-300 67.2801,-294 73.2801,-288 79.2801,-288 79.2801,-288 125.2801,-288 125.2801,-288 131.2801,-288 137.2801,-294 137.2801,-300 137.2801,-300 137.2801,-312 137.2801,-312 137.2801,-318 131.2801,-324 125.2801,-324"/>
<text text-anchor="middle" x="102.2801" y="-303.5" font-family="sans" font-size="10.00" fill="#000000">sam_index</text>
</g>
<!-- 6&#45;&gt;11 -->
<g id="edge20" class="edge">
<title>6&#45;&gt;11</title>
<path fill="none" stroke="#c0c0c0" stroke-width="2" d="M149.3826,-359.8314C142.0524,-351.454 133.2141,-341.3531 125.1832,-332.1749"/>
<polygon fill="#c0c0c0" stroke="#c0c0c0" stroke-width="2" points="127.6109,-329.6343 118.3918,-324.4133 122.3428,-334.2438 127.6109,-329.6343"/>
</g>
<!-- 7&#45;&gt;3 -->
<g id="edge8" class="edge">
<title>7&#45;&gt;3</title>
<path fill="none" stroke="#c0c0c0" stroke-width="2" d="M84.7567,-215.8314C83.6872,-208.131 82.4155,-198.9743 81.2269,-190.4166"/>
<polygon fill="#c0c0c0" stroke="#c0c0c0" stroke-width="2" points="84.68,-189.8367 79.8375,-180.4133 77.7466,-190.7997 84.68,-189.8367"/>
</g>
<!-- 7&#45;&gt;4 -->
<g id="edge9" class="edge">
<title>7&#45;&gt;4</title>
<path fill="none" stroke="#c0c0c0" stroke-width="2" d="M102.9254,-215.8314C110.1392,-207.454 118.8372,-197.3531 126.7406,-188.1749"/>
<polygon fill="#c0c0c0" stroke="#c0c0c0" stroke-width="2" points="129.5512,-190.2748 133.4243,-180.4133 124.2468,-185.7071 129.5512,-190.2748"/>
</g>
<!-- 8 -->
<g id="node9" class="node">
<title>8</title>
<path fill="none" stroke="#88d856" stroke-width="2" d="M114.2801,-540C114.2801,-540 74.2801,-540 74.2801,-540 68.2801,-540 62.2801,-534 62.2801,-528 62.2801,-528 62.2801,-516 62.2801,-516 62.2801,-510 68.2801,-504 74.2801,-504 74.2801,-504 114.2801,-504 114.2801,-504 120.2801,-504 126.2801,-510 126.2801,-516 126.2801,-516 126.2801,-528 126.2801,-528 126.2801,-534 120.2801,-540 114.2801,-540"/>
<text text-anchor="middle" x="94.2801" y="-519.5" font-family="sans" font-size="10.00" fill="#000000">assembly</text>
</g>
<!-- 8&#45;&gt;3 -->
<g id="edge7" class="edge">
<title>8&#45;&gt;3</title>
<path fill="none" stroke="#c0c0c0" stroke-width="2" d="M72.4784,-503.9956C44.7098,-478.9031 .2801,-430.5449 .2801,-378 .2801,-378 .2801,-378 .2801,-306 .2801,-265.1184 -.8404,-251.5875 19.2801,-216 25.4695,-205.0528 34.6333,-195.0387 43.8584,-186.6871"/>
<polygon fill="#c0c0c0" stroke="#c0c0c0" stroke-width="2" points="46.2492,-189.2475 51.558,-180.0787 41.6901,-183.9357 46.2492,-189.2475"/>
</g>
<!-- 8&#45;&gt;6 -->
<g id="edge13" class="edge">
<title>8&#45;&gt;6</title>
<path fill="none" stroke="#c0c0c0" stroke-width="2" d="M107.9831,-503.6221C115.1876,-493.453 123.8352,-480.3962 130.2801,-468 140.7369,-447.8872 149.9117,-423.9129 156.2416,-405.7673"/>
<polygon fill="#c0c0c0" stroke="#c0c0c0" stroke-width="2" points="159.6269,-406.6839 159.5416,-396.0894 153.0015,-404.4247 159.6269,-406.6839"/>
</g>
<!-- 8&#45;&gt;7 -->
<g id="edge16" class="edge">
<title>8&#45;&gt;7</title>
<path fill="none" stroke="#c0c0c0" stroke-width="2" d="M78.2897,-503.9169C70.6263,-494.0371 62.2636,-481.1563 58.2801,-468 35.0974,-391.4326 38.7656,-365.5834 58.2801,-288 60.6188,-278.7024 64.9031,-269.2609 69.474,-260.9283"/>
<polygon fill="#c0c0c0" stroke="#c0c0c0" stroke-width="2" points="72.635,-262.4564 74.668,-252.0585 66.5945,-258.9192 72.635,-262.4564"/>
</g>
<!-- 9 -->
<g id="node10" class="node">
<title>9</title>
<path fill="none" stroke="#d8d356" stroke-width="2" d="M234.7801,-468C234.7801,-468 189.7801,-468 189.7801,-468 183.7801,-468 177.7801,-462 177.7801,-456 177.7801,-456 177.7801,-444 177.7801,-444 177.7801,-438 183.7801,-432 189.7801,-432 189.7801,-432 234.7801,-432 234.7801,-432 240.7801,-432 246.7801,-438 246.7801,-444 246.7801,-444 246.7801,-456 246.7801,-456 246.7801,-462 240.7801,-468 234.7801,-468"/>
<text text-anchor="middle" x="212.2801" y="-447.5" font-family="sans" font-size="10.00" fill="#000000">bwa_index</text>
</g>
<!-- 8&#45;&gt;9 -->
<g id="edge18" class="edge">
<title>8&#45;&gt;9</title>
<path fill="none" stroke="#c0c0c0" stroke-width="2" d="M124.0565,-503.8314C139.1494,-494.6221 157.6558,-483.3301 173.8144,-473.4706"/>
<polygon fill="#c0c0c0" stroke="#c0c0c0" stroke-width="2" points="175.7999,-476.3593 182.5133,-468.1628 172.1538,-470.3838 175.7999,-476.3593"/>
</g>
<!-- 10 -->
<g id="node11" class="node">
<title>10</title>
<path fill="none" stroke="#d87556" stroke-width="2" d="M109.2801,-468C109.2801,-468 79.2801,-468 79.2801,-468 73.2801,-468 67.2801,-462 67.2801,-456 67.2801,-456 67.2801,-444 67.2801,-444 67.2801,-438 73.2801,-432 79.2801,-432 79.2801,-432 109.2801,-432 109.2801,-432 115.2801,-432 121.2801,-438 121.2801,-444 121.2801,-444 121.2801,-456 121.2801,-456 121.2801,-462 115.2801,-468 109.2801,-468"/>
<text text-anchor="middle" x="94.2801" y="-447.5" font-family="sans" font-size="10.00" fill="#000000">faidx</text>
</g>
<!-- 8&#45;&gt;10 -->
<g id="edge19" class="edge">
<title>8&#45;&gt;10</title>
<path fill="none" stroke="#c0c0c0" stroke-width="2" d="M94.2801,-503.8314C94.2801,-496.131 94.2801,-486.9743 94.2801,-478.4166"/>
<polygon fill="#c0c0c0" stroke="#c0c0c0" stroke-width="2" points="97.7802,-478.4132 94.2801,-468.4133 90.7802,-478.4133 97.7802,-478.4132"/>
</g>
<!-- 9&#45;&gt;6 -->
<g id="edge11" class="edge">
<title>9&#45;&gt;6</title>
<path fill="none" stroke="#c0c0c0" stroke-width="2" d="M200.4201,-431.8314C195.1172,-423.7079 188.7565,-413.9637 182.9128,-405.0118"/>
<polygon fill="#c0c0c0" stroke="#c0c0c0" stroke-width="2" points="185.697,-402.8739 177.2999,-396.4133 179.8354,-406.7003 185.697,-402.8739"/>
</g>
<!-- 10&#45;&gt;6 -->
<g id="edge12" class="edge">
<title>10&#45;&gt;6</title>
<path fill="none" stroke="#c0c0c0" stroke-width="2" d="M112.1964,-431.8314C120.6243,-423.2848 130.8212,-412.9443 140.0161,-403.6198"/>
<polygon fill="#c0c0c0" stroke="#c0c0c0" stroke-width="2" points="142.5933,-405.9912 147.1226,-396.4133 137.609,-401.0761 142.5933,-405.9912"/>
</g>
<!-- 11&#45;&gt;7 -->
<g id="edge15" class="edge">
<title>11&#45;&gt;7</title>
<path fill="none" stroke="#c0c0c0" stroke-width="2" d="M98.495,-287.8314C96.8908,-280.131 94.9831,-270.9743 93.2003,-262.4166"/>
<polygon fill="#c0c0c0" stroke="#c0c0c0" stroke-width="2" points="96.5823,-261.4892 91.1162,-252.4133 89.7294,-262.9169 96.5823,-261.4892"/>
</g>
<!-- 12 -->
<g id="node13" class="node">
<title>12</title>
<path fill="none" stroke="#9fd856" stroke-width="2" d="M120.7801,-612C120.7801,-612 67.7801,-612 67.7801,-612 61.7801,-612 55.7801,-606 55.7801,-600 55.7801,-600 55.7801,-588 55.7801,-588 55.7801,-582 61.7801,-576 67.7801,-576 67.7801,-576 120.7801,-576 120.7801,-576 126.7801,-576 132.7801,-582 132.7801,-588 132.7801,-588 132.7801,-600 132.7801,-600 132.7801,-606 126.7801,-612 120.7801,-612"/>
<text text-anchor="middle" x="94.2801" y="-591.5" font-family="sans" font-size="10.00" fill="#000000">merge_pairs</text>
</g>
<!-- 12&#45;&gt;8 -->
<g id="edge17" class="edge">
<title>12&#45;&gt;8</title>
<path fill="none" stroke="#c0c0c0" stroke-width="2" d="M94.2801,-575.8314C94.2801,-568.131 94.2801,-558.9743 94.2801,-550.4166"/>
<polygon fill="#c0c0c0" stroke="#c0c0c0" stroke-width="2" points="97.7802,-550.4132 94.2801,-540.4133 90.7802,-550.4133 97.7802,-550.4132"/>
</g>
<!-- 13 -->
<g id="node14" class="node">
<title>13</title>
<path fill="none" stroke="#bed856" stroke-width="2" d="M170.2801,-684C170.2801,-684 96.2801,-684 96.2801,-684 90.2801,-684 84.2801,-678 84.2801,-672 84.2801,-672 84.2801,-660 84.2801,-660 84.2801,-654 90.2801,-648 96.2801,-648 96.2801,-648 170.2801,-648 170.2801,-648 176.2801,-648 182.2801,-654 182.2801,-660 182.2801,-660 182.2801,-672 182.2801,-672 182.2801,-678 176.2801,-684 170.2801,-684"/>
<text text-anchor="middle" x="133.2801" y="-663.5" font-family="sans" font-size="10.00" fill="#000000">reads_correction</text>
</g>
<!-- 13&#45;&gt;12 -->
<g id="edge22" class="edge">
<title>13&#45;&gt;12</title>
<path fill="none" stroke="#c0c0c0" stroke-width="2" d="M123.4388,-647.8314C119.0844,-639.7925 113.8704,-630.1666 109.0632,-621.2918"/>
<polygon fill="#c0c0c0" stroke="#c0c0c0" stroke-width="2" points="112.0944,-619.5392 104.254,-612.4133 105.9394,-622.8732 112.0944,-619.5392"/>
</g>
<!-- 14 -->
<g id="node15" class="node">
<title>14</title>
<path fill="none" stroke="#d85656" stroke-width="2" d="M123.7801,-756C123.7801,-756 64.7801,-756 64.7801,-756 58.7801,-756 52.7801,-750 52.7801,-744 52.7801,-744 52.7801,-732 52.7801,-732 52.7801,-726 58.7801,-720 64.7801,-720 64.7801,-720 123.7801,-720 123.7801,-720 129.7801,-720 135.7801,-726 135.7801,-732 135.7801,-732 135.7801,-744 135.7801,-744 135.7801,-750 129.7801,-756 123.7801,-756"/>
<text text-anchor="middle" x="94.2801" y="-735.5" font-family="sans" font-size="10.00" fill="#000000">params_table</text>
</g>
<!-- 14&#45;&gt;12 -->
<g id="edge21" class="edge">
<title>14&#45;&gt;12</title>
<path fill="none" stroke="#c0c0c0" stroke-width="2" d="M86.1885,-719.9165C82.024,-709.6179 77.3884,-696.3436 75.2801,-684 72.5864,-668.2284 72.5864,-663.7716 75.2801,-648 76.779,-639.2245 79.5552,-629.9785 82.5314,-621.6659"/>
<polygon fill="#c0c0c0" stroke="#c0c0c0" stroke-width="2" points="85.8928,-622.6742 86.1885,-612.0835 79.3529,-620.1782 85.8928,-622.6742"/>
</g>
<!-- 14&#45;&gt;13 -->
<g id="edge23" class="edge">
<title>14&#45;&gt;13</title>
<path fill="none" stroke="#c0c0c0" stroke-width="2" d="M104.1215,-719.8314C108.4759,-711.7925 113.6899,-702.1666 118.4971,-693.2918"/>
<polygon fill="#c0c0c0" stroke="#c0c0c0" stroke-width="2" points="121.6209,-694.8732 123.3063,-684.4133 115.4659,-691.5392 121.6209,-694.8732"/>
</g>
<!-- 15 -->
<g id="node16" class="node">
<title>15</title>
<path fill="none" stroke="#5673d8" stroke-width="2" d="M70.7801,-828C70.7801,-828 13.7801,-828 13.7801,-828 7.7801,-828 1.7801,-822 1.7801,-816 1.7801,-816 1.7801,-804 1.7801,-804 1.7801,-798 7.7801,-792 13.7801,-792 13.7801,-792 70.7801,-792 70.7801,-792 76.7801,-792 82.7801,-798 82.7801,-804 82.7801,-804 82.7801,-816 82.7801,-816 82.7801,-822 76.7801,-828 70.7801,-828"/>
<text text-anchor="middle" x="42.2801" y="-807.5" font-family="sans" font-size="10.00" fill="#000000">genome_size</text>
</g>
<!-- 15&#45;&gt;14 -->
<g id="edge24" class="edge">
<title>15&#45;&gt;14</title>
<path fill="none" stroke="#c0c0c0" stroke-width="2" d="M55.4019,-791.8314C61.33,-783.6232 68.4531,-773.7606 74.9735,-764.7323"/>
<polygon fill="#c0c0c0" stroke="#c0c0c0" stroke-width="2" points="77.9641,-766.5693 80.9817,-756.4133 72.2893,-762.4708 77.9641,-766.5693"/>
</g>
<!-- 16 -->
<g id="node17" class="node">
<title>16</title>
<path fill="none" stroke="#56d8a2" stroke-width="2" d="M181.7801,-828C181.7801,-828 112.7801,-828 112.7801,-828 106.7801,-828 100.7801,-822 100.7801,-816 100.7801,-816 100.7801,-804 100.7801,-804 100.7801,-798 106.7801,-792 112.7801,-792 112.7801,-792 181.7801,-792 181.7801,-792 187.7801,-792 193.7801,-798 193.7801,-804 193.7801,-804 193.7801,-816 193.7801,-816 193.7801,-822 187.7801,-828 181.7801,-828"/>
<text text-anchor="middle" x="147.2801" y="-807.5" font-family="sans" font-size="10.00" fill="#000000">reads_statistics</text>
</g>
<!-- 16&#45;&gt;14 -->
<g id="edge25" class="edge">
<title>16&#45;&gt;14</title>
<path fill="none" stroke="#c0c0c0" stroke-width="2" d="M133.906,-791.8314C127.8639,-783.6232 120.6039,-773.7606 113.9581,-764.7323"/>
<polygon fill="#c0c0c0" stroke="#c0c0c0" stroke-width="2" points="116.5813,-762.3918 107.8344,-756.4133 110.9439,-766.5415 116.5813,-762.3918"/>
</g>
</g>
</svg>
